<svg width="1440" height="885" viewBox="0 0 1440 885" fill="none" xmlns="http://www.w3.org/2000/svg">
<path d="M164 744C84 634 39.9795 799.97 -12 886H1446V310C1446 310 1446 286 1408 310C1370 334 1352 228 1260 286C1168 344 1243.14 346.332 1066 422C983.424 392.842 942.614 341.777 832 490C789.658 546.049 752 584 674 556C674 556 532 518 528 556C524 594 466 634 416 684C366 734 244 854 164 744Z" stroke="#84DCC6"/>
<path d="M256.142 -428.618C451.25 -475.136 207.942 -594.981 90.8661 -690.744L-361.199 991.249L530.571 1230.93C530.571 1230.93 567.728 1240.91 542.353 1187.09C516.979 1133.27 686.67 1156.61 625.399 1026.34C564.128 896.071 537.22 981.785 474.994 745.944C545.74 662.814 637.453 636.983 442.269 447.699C368.621 375.53 321.542 316.295 389.076 237.962C389.076 237.962 491.937 89.959 434.345 69.5324C376.753 49.1057 332.808 -34.4493 270.9 -112.936C208.992 -191.423 61.0341 -382.099 256.142 -428.618Z" stroke="#84DCC6"/>
</svg>
